<svg id="svg" version="1.1" width="400" height="400" viewBox="0 0 400 400" xmlns="http://www.w3.org/2000/svg" xmlns:xlink="http://www.w3.org/1999/xlink" ><g id="svgg"><path id="path0" d="M147.381 41.432 C 132.644 42.859,126.809 50.735,126.710 69.336 L 126.663 78.320 123.543 85.742 C 100.131 141.439,78.830 215.037,60.910 302.148 L 58.098 315.820 55.644 318.430 C 35.990 339.331,68.628 371.217,92.843 354.773 C 99.103 350.522,101.826 343.528,100.768 334.420 L 100.322 330.588 102.292 323.394 C 104.447 315.523,107.222 306.690,109.018 301.988 L 110.168 298.978 117.291 297.693 C 135.256 294.452,156.198 290.872,168.824 288.885 C 176.410 287.691,183.547 286.565,184.684 286.382 C 186.409 286.105,186.807 286.154,187.087 286.678 C 187.272 287.023,189.269 291.611,191.524 296.875 C 198.697 313.613,203.369 323.645,206.111 328.199 C 207.403 330.345,207.462 330.615,207.793 336.012 C 208.445 346.657,211.506 351.824,219.556 355.872 C 228.994 360.617,245.759 361.383,254.159 357.452 C 265.625 352.087,266.443 334.625,255.692 324.707 C 248.204 317.798,235.884 293.377,233.839 281.387 L 233.629 280.156 238.982 279.905 C 256.793 279.069,259.192 278.216,262.582 271.511 C 268.621 259.566,266.321 246.734,256.360 236.790 C 249.709 230.151,246.716 229.874,229.387 234.293 C 217.003 237.452,216.963 237.458,216.698 236.230 C 216.593 235.747,214.983 229.814,213.121 223.047 C 200.836 178.412,191.831 135.242,187.101 98.303 L 185.890 88.840 187.483 86.119 C 191.867 78.631,193.844 67.487,192.011 60.598 C 189.012 49.330,177.418 42.717,158.398 41.426 C 151.957 40.988,151.969 40.988,147.381 41.432 M274.805 44.002 C 265.407 44.709,254.751 47.715,249.651 51.097 C 244.961 54.207,244.377 57.072,246.890 64.648 C 248.232 68.692,252.341 96.398,252.344 101.411 C 252.344 102.062,232.405 105.205,230.340 104.880 C 229.444 104.739,226.966 104.111,224.834 103.484 C 217.073 101.202,213.406 102.709,210.027 109.570 C 204.586 120.620,206.901 135.135,215.554 144.232 C 222.938 151.994,229.839 152.142,246.837 144.900 C 251.865 142.758,256.030 141.056,256.092 141.118 C 256.154 141.180,257.012 147.203,257.998 154.502 C 261.263 178.656,262.699 183.783,267.581 188.699 C 274.659 195.828,294.004 195.680,304.953 188.413 C 310.520 184.718,312.372 178.933,310.248 171.875 C 309.828 170.479,308.928 167.488,308.248 165.229 C 306.794 160.398,303.303 134.422,304.071 134.150 C 310.022 132.047,341.962 128.451,348.311 129.169 C 359.065 130.385,364.492 114.566,357.594 102.105 C 350.674 89.604,341.260 85.296,329.102 89.067 C 320.850 91.626,316.870 92.600,308.328 94.153 C 302.519 95.210,299.410 95.621,299.246 95.356 C 298.810 94.651,296.756 67.666,296.988 65.704 C 297.111 64.670,297.943 62.008,298.838 59.789 C 301.822 52.388,300.520 48.528,294.229 46.120 C 290.289 44.612,280.655 43.562,274.805 44.002 M151.152 155.566 C 154.106 170.845,164.853 219.737,168.518 234.570 C 169.899 240.156,170.999 244.756,170.963 244.791 C 170.815 244.939,118.646 253.932,118.550 253.826 C 118.493 253.763,118.775 251.437,119.176 248.658 C 122.828 223.388,132.504 193.008,148.076 157.920 C 150.541 152.366,150.534 152.372,151.152 155.566 " stroke="none" fill="#ffffff" fill-rule="evenodd"></path><path id="path1" d="M49.023 0.608 C 24.083 4.822,4.628 24.416,0.575 49.402 C -0.288 54.725,-0.288 345.275,0.575 350.598 C 4.656 375.758,24.242 395.344,49.402 399.425 C 54.725 400.288,345.275 400.288,350.598 399.425 C 375.758 395.344,395.344 375.758,399.425 350.598 C 400.288 345.275,400.288 54.725,399.425 49.402 C 395.344 24.242,375.758 4.656,350.598 0.575 C 345.518 -0.249,53.906 -0.217,49.023 0.608 M166.364 41.942 C 184.196 45.308,192.940 53.494,192.963 66.843 C 192.974 73.486,191.069 80.632,187.837 86.073 L 186.222 88.792 186.690 92.736 C 190.333 123.432,197.172 159.245,206.632 197.155 C 209.789 209.807,216.274 234.079,217.065 236.206 C 217.382 237.058,217.420 237.051,228.906 234.108 C 245.739 229.796,248.767 229.868,254.600 234.723 C 265.785 244.034,269.171 258.665,263.073 271.342 C 259.903 277.933,256.461 279.368,242.260 280.023 C 237.896 280.224,234.231 280.482,234.117 280.597 C 233.779 280.935,235.728 288.143,237.358 292.578 C 241.164 302.941,250.689 319.513,255.425 324.015 C 265.948 334.018,266.350 350.160,256.237 356.649 C 248.517 361.603,230.325 361.402,219.671 356.246 C 211.411 352.247,208.048 346.608,207.446 335.742 L 207.142 330.273 205.454 327.539 C 203.394 324.202,197.352 311.176,191.412 297.266 C 188.981 291.572,186.887 286.795,186.758 286.648 C 186.286 286.113,110.920 298.616,110.321 299.328 C 109.581 300.207,104.814 315.075,102.387 324.071 L 100.819 329.883 101.047 335.547 C 101.484 346.360,98.567 352.245,90.730 356.363 C 65.543 369.598,36.679 338.530,55.388 318.322 L 57.906 315.604 60.754 301.649 C 78.125 216.548,99.498 142.680,123.234 85.707 C 126.737 77.298,126.821 77.024,126.529 74.965 C 124.286 59.171,129.976 45.860,140.430 42.447 C 145.150 40.906,159.402 40.628,166.364 41.942 M287.324 44.168 C 299.451 45.855,302.872 50.497,299.066 60.100 C 298.269 62.111,297.477 64.503,297.307 65.417 C 297.028 66.909,299.044 94.816,299.465 95.282 C 299.624 95.458,306.621 94.256,314.258 92.739 C 316.836 92.227,322.142 90.849,326.050 89.676 C 329.958 88.504,334.176 87.430,335.425 87.290 C 354.338 85.168,369.986 116.708,355.226 127.202 C 352.569 129.091,351.871 129.206,341.395 129.473 C 332.851 129.691,305.152 133.389,304.087 134.455 C 303.515 135.027,307.535 162.042,308.814 166.213 C 311.272 174.232,311.422 174.978,311.241 178.320 C 310.667 188.949,294.695 196.412,278.204 193.758 C 265.016 191.634,262.064 186.216,258.034 156.739 C 256.911 148.522,255.905 141.712,255.799 141.606 C 255.693 141.500,251.966 142.981,247.516 144.898 C 235.424 150.107,235.115 150.195,229.081 150.195 L 223.983 150.195 221.010 148.726 C 206.583 141.596,201.874 114.822,213.249 104.595 C 216.560 101.618,219.136 101.342,225.225 103.311 C 230.187 104.915,231.871 104.905,242.286 103.205 C 247.390 102.372,251.680 101.575,251.820 101.435 C 252.578 100.677,248.401 70.494,246.858 65.578 C 244.981 59.595,244.672 57.605,245.316 55.652 C 247.825 48.050,270.557 41.836,287.324 44.168 M147.285 160.456 C 135.078 188.116,126.550 213.165,121.921 234.962 C 120.669 240.854,118.666 253.171,118.918 253.423 C 119.101 253.607,169.845 244.820,170.328 244.522 C 170.511 244.409,170.057 241.947,169.319 239.053 C 165.927 225.745,158.900 194.239,153.291 167.188 C 151.843 160.205,150.549 154.363,150.414 154.206 C 150.280 154.048,148.872 156.861,147.285 160.456 " stroke="none" fill="#4169e1" fill-rule="evenodd"></path><path id="path2" d="M351.563 93.945 C 352.291 94.697,352.976 95.313,353.083 95.313 C 353.190 95.313,352.682 94.697,351.953 93.945 C 351.224 93.193,350.540 92.578,350.433 92.578 C 350.325 92.578,350.834 93.193,351.563 93.945 M337.016 129.573 C 337.502 129.667,338.205 129.663,338.579 129.565 C 338.952 129.467,338.555 129.391,337.695 129.395 C 336.836 129.400,336.530 129.480,337.016 129.573 M242.676 279.957 C 243.052 280.055,243.667 280.055,244.043 279.957 C 244.419 279.859,244.111 279.778,243.359 279.778 C 242.607 279.778,242.300 279.859,242.676 279.957 M207.513 338.281 C 207.513 339.033,207.593 339.341,207.691 338.965 C 207.789 338.589,207.789 337.974,207.691 337.598 C 207.593 337.222,207.513 337.529,207.513 338.281 M95.682 352.637 L 94.336 354.102 95.801 352.755 C 97.164 351.502,97.445 351.172,97.147 351.172 C 97.082 351.172,96.422 351.831,95.682 352.637 " stroke="none" fill="#7d98e9" fill-rule="evenodd"></path><path id="path3" d="M206.747 121.875 C 206.747 122.842,206.823 123.237,206.916 122.754 C 207.009 122.271,207.009 121.479,206.916 120.996 C 206.823 120.513,206.747 120.908,206.747 121.875 M256.641 325.586 C 257.369 326.338,258.054 326.953,258.161 326.953 C 258.268 326.953,257.760 326.338,257.031 325.586 C 256.302 324.834,255.618 324.219,255.511 324.219 C 255.403 324.219,255.912 324.834,256.641 325.586 M207.528 335.547 C 207.528 336.514,207.604 336.909,207.698 336.426 C 207.791 335.942,207.791 335.151,207.698 334.668 C 207.604 334.185,207.528 334.580,207.528 335.547 " stroke="none" fill="#adbef1" fill-rule="evenodd"></path><path id="path4" d="M155.376 41.292 C 155.862 41.385,156.565 41.382,156.938 41.284 C 157.312 41.186,156.914 41.110,156.055 41.114 C 155.195 41.118,154.890 41.198,155.376 41.292 M133.182 47.168 L 131.836 48.633 133.301 47.287 C 134.106 46.546,134.766 45.887,134.766 45.822 C 134.766 45.524,134.435 45.805,133.182 47.168 M192.690 66.602 C 192.693 67.676,192.769 68.069,192.858 67.475 C 192.948 66.881,192.946 66.002,192.853 65.522 C 192.760 65.042,192.687 65.527,192.690 66.602 M126.303 67.969 C 126.303 69.580,126.372 70.239,126.456 69.434 C 126.541 68.628,126.541 67.310,126.456 66.504 C 126.372 65.698,126.303 66.357,126.303 67.969 M344.441 129.189 C 345.143 129.276,346.197 129.274,346.784 129.185 C 347.371 129.096,346.797 129.025,345.508 129.027 C 344.219 129.029,343.738 129.102,344.441 129.189 M215.820 144.922 C 216.659 145.781,217.434 146.484,217.541 146.484 C 217.649 146.484,217.050 145.781,216.211 144.922 C 215.372 144.063,214.597 143.359,214.490 143.359 C 214.382 143.359,214.981 144.063,215.820 144.922 M228.223 150.280 C 228.813 150.369,229.780 150.369,230.371 150.280 C 230.962 150.190,230.479 150.117,229.297 150.117 C 228.115 150.117,227.632 150.190,228.223 150.280 M56.030 317.676 L 54.883 318.945 56.152 317.798 C 57.336 316.729,57.601 316.406,57.300 316.406 C 57.232 316.406,56.661 316.978,56.030 317.676 M49.317 333.008 C 49.322 333.867,49.402 334.173,49.495 333.687 C 49.588 333.201,49.585 332.498,49.487 332.124 C 49.389 331.751,49.313 332.148,49.317 333.008 M56.641 349.805 C 57.369 350.557,58.054 351.172,58.161 351.172 C 58.268 351.172,57.760 350.557,57.031 349.805 C 56.302 349.053,55.618 348.438,55.511 348.438 C 55.403 348.438,55.912 349.053,56.641 349.805 " stroke="none" fill="#d8e0f8" fill-rule="evenodd"></path></g></svg>